<svg id="kity_svg_6" xmlns="http://www.w3.org/2000/svg" xmlns:xlink="http://www.w3.org/1999/xlink" version="1.1" width="807" height="265" style="background: rgb(251, 251, 251); visibility: visible;" viewBox="0 0 807 265"><defs id="kity_defs_7"><linearGradient id="kity_linearGradient_17" x1="0" y1="0" x2="0" y2="1"><stop id="kity_stop_18" offset="0" stop-color="rgb(255, 255, 255)"></stop><stop id="kity_stop_19" offset="1" stop-color="rgb(204, 204, 204)"></stop></linearGradient><marker id="kity_marker_2" orient="auto" refX="6" refY="0" viewBox="-7 -7 14 14" markerWidth="7" markerHeight="7" markerUnits="userSpaceOnUse"><path id="kity_path_3" fill="rgb(115, 161, 191)" stroke="none" d="M6,0A6,6,0,1,1,-6,0A6,6,0,1,1,6,0"></path></marker></defs><g id="kity_g_8"><g id="minder1" text-rendering="geometricPrecision"><g id="minder_connect_group1"><path id="kity_path_31" fill="none" stroke="rgb(115, 161, 191)" stroke-width="1" d="M295.4999711971824,133.4999812107627A174,99,0,0,1,469.4999711971824,34.49998121076271"></path><path id="kity_path_39" fill="none" stroke="rgb(115, 161, 191)" stroke-width="1" d="M295.4999711971824,133.4999812107627A174,33,0,0,1,469.4999711971824,100.49998121076271"></path><path id="kity_path_47" fill="none" stroke="rgb(115, 161, 191)" stroke-width="1" d="M295.4999711971824,133.4999812107627A174,33,0,0,0,469.4999711971824,166.4999812107627"></path><path id="kity_path_55" fill="none" stroke="rgb(115, 161, 191)" stroke-width="1" d="M295.4999711971824,133.4999812107627A174,99,0,0,0,469.4999711971824,232.4999812107627"></path><path id="kity_path_63" fill="none" stroke="rgb(115, 161, 191)" stroke-width="1" d="M568.4999711971824,232.4999812107627C583.4999711971824,232.4999812107627,583.4999711971824,246.4999812107627,598.4999711971824,246.4999812107627L678.4999711971824,246.4999812107627"></path><path id="kity_path_71" fill="none" stroke="rgb(115, 161, 191)" stroke-width="1" d="M678.4999711971824,246.4999812107627C693.4999711971824,246.4999812107627,693.4999711971824,246.4999812107627,708.4999711971824,246.4999812107627L788.4999711971824,246.4999812107627"></path><path id="kity_path_79" fill="none" stroke="rgb(115, 161, 191)" stroke-width="1" d="M295.4999711971824,133.4999812107627A174,66,0,0,0,121.49997119718239,67.49998121076271"></path><path id="kity_path_87" fill="none" stroke="rgb(115, 161, 191)" stroke-width="1" d="M295.4999711971824,133.4999812107627A174,0,0,0,1,121.49997119718239,133.4999812107627"></path><path id="kity_path_95" fill="none" stroke="rgb(115, 161, 191)" stroke-width="1" d="M295.4999711971824,133.4999812107627A174,66,0,0,1,121.49997119718239,199.4999812107627"></path></g><g id="minder_node1"><path id="node_outline1" fill="rgb(115, 161, 191)" stroke="rgb(115, 161, 191)" d="M244.4999711971824,113.49998121076271h102a5,5,0,0,1,5,5v30a5,5,0,0,1,-5,5h-102a5,5,0,0,1,-5,-5v-30a5,5,0,0,1,5,-5z" stroke-width="3"></path><g id="node_text1" fill="white"><text id="kity_text_22" text-rendering="inherit" font-size="16" dy=".8em" y="123.09998123841126" x="263.4999711971824">中心主题</text></g></g><g id="kity_g_12"><path id="kity_path_13" fill="none" stroke="none" d="M263.4999711971824,133.4999812107627h0v0h0z"></path></g><g id="kity_g_14"><path id="kity_path_15" fill="none" stroke="none" d="M263.4999711971824,133.4999812107627h0v0h0z"></path><path id="kity_path_16" fill="none" stroke="none"></path></g><g id="minder_node2"><g id="node_expander1" style="cursor: pointer;" display="none"><path id="kity_path_36" fill="white" stroke="gray" d="M470.4999665254801,34.49998393805107A6,6,0,1,1,458.4999665254801,34.49998393805107A6,6,0,1,1,470.4999665254801,34.49998393805107"></path><path id="kity_path_37" fill="none" stroke="gray"></path></g><path id="node_outline2" fill="rgb(238, 243, 246)" stroke="rgb(115, 161, 191)" d="M474.4999649161547,21.499983938051074h91a3,3,0,0,1,3,3v20a3,3,0,0,1,-3,3h-91a3,3,0,0,1,-3,-3v-20a3,3,0,0,1,3,-3z" stroke-width="1"></path><g id="node_text2" fill="black"><text id="kity_text_33" text-rendering="inherit" font-size="14" dy=".8em" y="25.399984178623427" x="491.4999649161547">分支主题</text></g></g><g id="minder_node3"><g id="node_expander2" style="cursor: pointer;" display="none"><path id="kity_path_44" fill="white" stroke="gray" d="M470.4999665254801,100.49998211985883A6,6,0,1,1,458.4999665254801,100.49998211985883A6,6,0,1,1,470.4999665254801,100.49998211985883"></path><path id="kity_path_45" fill="none" stroke="gray"></path></g><path id="node_outline3" fill="rgb(238, 243, 246)" stroke="rgb(115, 161, 191)" d="M474.4999649161547,87.49998211985883h91a3,3,0,0,1,3,3v20a3,3,0,0,1,-3,3h-91a3,3,0,0,1,-3,-3v-20a3,3,0,0,1,3,-3z" stroke-width="1"></path><g id="node_text3" fill="black"><text id="kity_text_41" text-rendering="inherit" font-size="14" dy=".8em" y="91.39998236043118" x="491.4999649161547">分支主题</text></g></g><g id="minder_node4"><g id="node_expander3" style="cursor: pointer;" display="none"><path id="kity_path_52" fill="white" stroke="gray" d="M470.4999665254801,166.4999803016666A6,6,0,1,1,458.4999665254801,166.4999803016666A6,6,0,1,1,470.4999665254801,166.4999803016666"></path><path id="kity_path_53" fill="none" stroke="gray"></path></g><path id="node_outline4" fill="rgb(238, 243, 246)" stroke="rgb(115, 161, 191)" d="M474.4999649161547,153.4999803016666h91a3,3,0,0,1,3,3v20a3,3,0,0,1,-3,3h-91a3,3,0,0,1,-3,-3v-20a3,3,0,0,1,3,-3z" stroke-width="1"></path><g id="node_text4" fill="black"><text id="kity_text_49" text-rendering="inherit" font-size="14" dy=".8em" y="157.39998054223895" x="491.4999649161547">分支主题</text></g></g><g id="minder_node5"><g id="node_expander4" style="cursor: pointer;"><path id="kity_path_60" fill="white" stroke="gray" d="M470.4999665254801,232.49997848347437A6,6,0,1,1,458.4999665254801,232.49997848347437A6,6,0,1,1,470.4999665254801,232.49997848347437"></path><path id="kity_path_61" fill="none" stroke="gray" d="M459.9999665254801,232.49997848347437L468.9999665254801,232.49997848347437"></path></g><path id="node_outline5" fill="rgb(238, 243, 246)" stroke="rgb(115, 161, 191)" d="M474.4999649161547,219.49997848347437h91a3,3,0,0,1,3,3v20a3,3,0,0,1,-3,3h-91a3,3,0,0,1,-3,-3v-20a3,3,0,0,1,3,-3z" stroke-width="1"></path><g id="node_text5" fill="black"><text id="kity_text_57" text-rendering="inherit" font-size="14" dy=".8em" y="223.39997872404672" x="491.4999649161547">分支主题</text></g></g><g id="minder_node6"><g id="node_expander5" style="cursor: pointer;"><path id="kity_path_68" fill="white" stroke="gray" d="M608.4999618582859,232.49997848347437A6,6,0,1,1,596.4999618582859,232.49997848347437A6,6,0,1,1,608.4999618582859,232.49997848347437"></path><path id="kity_path_69" fill="none" stroke="gray" d="M597.9999618582859,232.49997848347437L606.9999618582859,232.49997848347437"></path></g><path id="node_outline6" fill="none" stroke="none" d="M613.499961417512,221.49997848347437h60a5,5,0,0,1,5,5v12a5,5,0,0,1,-5,5h-60a5,5,0,0,1,-5,-5v-12a5,5,0,0,1,5,-5z" stroke-width="3"></path><g id="node_text6" fill="black"><text id="kity_text_65" text-rendering="inherit" font-size="12" dy=".8em" y="224.6999785522952" x="618.499961417512">分支主题</text></g></g><g id="minder_node7"><g id="node_expander6" style="cursor: pointer;" display="none"><path id="kity_path_76" fill="white" stroke="gray" d="M718.4999588279655,232.49997848347437A6,6,0,1,1,706.4999588279655,232.49997848347437A6,6,0,1,1,718.4999588279655,232.49997848347437"></path><path id="kity_path_77" fill="none" stroke="gray"></path></g><path id="node_outline7" fill="none" stroke="none" d="M723.4999583871917,221.49997848347437h60a5,5,0,0,1,5,5v12a5,5,0,0,1,-5,5h-60a5,5,0,0,1,-5,-5v-12a5,5,0,0,1,5,-5z" stroke-width="3"></path><g id="node_text7" fill="black"><text id="kity_text_73" text-rendering="inherit" font-size="12" dy=".8em" y="224.6999785522952" x="728.4999583871917">分支主题</text></g></g><g id="minder_node8"><g id="node_expander7" style="cursor: pointer;" display="none"><path id="kity_path_84" fill="white" stroke="gray" d="M132.49997429812686,67.49998302895494A6,6,0,1,1,120.49997429812687,67.49998302895494A6,6,0,1,1,132.49997429812686,67.49998302895494"></path><path id="kity_path_85" fill="none" stroke="gray"></path></g><path id="node_outline8" fill="rgb(238, 243, 246)" stroke="rgb(115, 161, 191)" d="M24.499977312919924,54.499983028954944h92a3,3,0,0,1,3,3v20a3,3,0,0,1,-3,3h-92a3,3,0,0,1,-3,-3v-20a3,3,0,0,1,3,-3z" stroke-width="1"></path><g id="node_text8" fill="black"><text id="kity_text_81" text-rendering="inherit" font-size="14" dy=".8em" y="58.3999832695273" x="41.499977312919924">分支主题</text></g></g><g id="minder_node9"><g id="node_expander8" style="cursor: pointer;" display="none"><path id="kity_path_92" fill="white" stroke="gray" d="M132.49997429812686,133.4999812107627A6,6,0,1,1,120.49997429812687,133.4999812107627A6,6,0,1,1,132.49997429812686,133.4999812107627"></path><path id="kity_path_93" fill="none" stroke="gray"></path></g><path id="node_outline9" fill="rgb(238, 243, 246)" stroke="rgb(115, 161, 191)" d="M24.499977312919924,120.49998121076271h92a3,3,0,0,1,3,3v20a3,3,0,0,1,-3,3h-92a3,3,0,0,1,-3,-3v-20a3,3,0,0,1,3,-3z" stroke-width="1"></path><g id="node_text9" fill="black"><text id="kity_text_89" text-rendering="inherit" font-size="14" dy=".8em" y="124.39998145133507" x="41.499977312919924">分支主题</text></g></g><g id="minder_node10"><g id="node_expander9" style="cursor: pointer;" display="none"><path id="kity_path_100" fill="white" stroke="gray" d="M132.49997429812686,199.49997939257048A6,6,0,1,1,120.49997429812687,199.49997939257048A6,6,0,1,1,132.49997429812686,199.49997939257048"></path><path id="kity_path_101" fill="none" stroke="gray"></path></g><path id="node_outline10" fill="rgb(238, 243, 246)" stroke="rgb(57, 80, 96)" d="M24.499977312919924,186.49997939257048h92a3,3,0,0,1,3,3v20a3,3,0,0,1,-3,3h-92a3,3,0,0,1,-3,-3v-20a3,3,0,0,1,3,-3z" stroke-width="3"></path><g id="node_text10" fill="black"><text id="kity_text_97" text-rendering="inherit" font-size="14" dy=".8em" y="190.39997963314283" x="41.499977312919924">分支主题</text></g></g></g></g></svg>